# xmcd
# 
# Track frame offsets:
#     150
#     21964
#     45097
#     67682
#     93910
#     110259
#     136986
#     166683
#     179547
#     204302
#     227590
#     247467
# 
# Disc length: 3615
# 
# Revision: 5
# Processed by: cddbd v1.5.2PL0 Copyright (c) Steve Scherf et al.
# Submitted via: fre:ac v1.0.27
# 
DISCID=910e1d0c
DTITLE=James McMurty - Just Us Kids
DYEAR=2008
DGENRE=Country-influenced Rock
TTITLE0=Bayou Tortous
TTITLE1=Just Us Kids
TTITLE2=God Bless America
TTITLE3=Cheney's Toy
TTITLE4=Freeway View
TTITLE5=Hurricane Party
TTITLE6=Ruby and Carlos
TTITLE7=Brief Intermission
TTITLE8=Fire Line Road
TTITLE9=The Governor
TTITLE10=Ruins of the Realm
TTITLE11=You'd a Thought
EXTD=YEAR: 2008
EXTT0=
EXTT1=
EXTT2=
EXTT3=
EXTT4=
EXTT5=
EXTT6=
EXTT7=
EXTT8=
EXTT9=
EXTT10=
EXTT11=
PLAYORDER=
